# xmcd
# 
# Track frame offsets:
#     150
#     16889
#     26828
#     38507
#     56490
#     73637
#     90727
#     110450
#     141584
#     157705
#     168608
#     187927
#     205124
#     220555
#     255721
#     273049
# 
# Disc length: 3917
# 
# Revision: 2
# Processed by: cddbd v1.5.2PL0 Copyright (c) Steve Scherf et al.
# Submitted via: fre:ac v1.0.31
# 
DISCID=d30f4b10
DTITLE=Aztec Camera - High Land, Hard Rain Disc 2
DYEAR=1983
DGENRE=Rock/Pop
TTITLE0=Pillar To Post [Single]
TTITLE1=Queen's Tattoos
TTITLE2=Orchid Girl
TTITLE3=Haywire
TTITLE4=Walk Out To Winter [7'' Version]
TTITLE5=Set The Killing Free
TTITLE6=Back On Board [Live]
TTITLE7=We Could Send Letters [Live]
TTITLE8=Walk Out To Winter [Kid Jensen Session]
TTITLE9=Down The Dip [Kid Jensen Session]
TTITLE10=Back On Board [Kid Jensen Session]
TTITLE11=Release [Kid Jensen Session]
TTITLE12=Walk Out To Winter [Single]
TTITLE13=Walk Out To Winter [12'' Version]
TTITLE14=Oblivious [Colin Fairley Remix]
TTITLE15=Oblivious [Langer/Winstanley Remix]
EXTD=
EXTT0=
EXTT1=
EXTT2=
EXTT3=
EXTT4=
EXTT5=
EXTT6=
EXTT7=
EXTT8=
EXTT9=
EXTT10=
EXTT11=
EXTT12=
EXTT13=
EXTT14=
EXTT15=
PLAYORDER=
